<svg xmlns="http://www.w3.org/2000/svg" viewBox="0 0 1280 720" width="1280" height="720">
  <defs>
    <linearGradient id="topBar" x1="0%" y1="0%" x2="100%" y2="0%">
      <stop offset="0%" stop-color="#1A3A5C" />
      <stop offset="100%" stop-color="#2D8A4E" />
    </linearGradient>
    <linearGradient id="coreGrad" x1="0%" y1="0%" x2="100%" y2="100%">
      <stop offset="0%" stop-color="#1A3A5C" />
      <stop offset="100%" stop-color="#2D8A4E" />
    </linearGradient>
    <filter id="coreShadow">
      <feGaussianBlur in="SourceAlpha" stdDeviation="8" />
      <feOffset dx="0" dy="4" />
      <feComponentTransfer><feFuncA type="linear" slope="0.15" /></feComponentTransfer>
      <feMerge><feMergeNode /><feMergeNode in="SourceGraphic" /></feMerge>
    </filter>
    <filter id="nodeShadow">
      <feGaussianBlur in="SourceAlpha" stdDeviation="4" />
      <feOffset dx="0" dy="2" />
      <feComponentTransfer><feFuncA type="linear" slope="0.1" /></feComponentTransfer>
      <feMerge><feMergeNode /><feMergeNode in="SourceGraphic" /></feMerge>
    </filter>
  </defs>

  
  <rect width="1280" height="720" fill="#FFFFFF" />
  <rect x="0" y="0" width="1280" height="6" fill="url(#topBar)" />

  
  <circle cx="640" cy="380" r="320" fill="#1A3A5C" fill-opacity="0.015" />
  <circle cx="640" cy="380" r="220" fill="#1A3A5C" fill-opacity="0.02" />

  
  <text x="60" y="58" font-family="'Helvetica Neue', Arial, sans-serif" font-size="30" font-weight="bold" fill="#1A3A5C">
    A Four-Pillar Framework to Transform Customer Relationships
  </text>

  
  <text x="60" y="85" font-family="Georgia, 'Times New Roman', serif" font-size="16" fill="#5D6D7E" font-style="italic">
    From transactional sales to enduring loyalty — a strategic architecture for Kimsoong Europe
  </text>

  
  
  <line x1="640" y1="380" x2="260" y2="260" stroke="#1A3A5C" stroke-width="2" stroke-opacity="0.2" stroke-dasharray="6,4" />
  <line x1="640" y1="380" x2="1020" y2="260" stroke="#E8A838" stroke-width="2" stroke-opacity="0.2" stroke-dasharray="6,4" />
  <line x1="640" y1="380" x2="260" y2="520" stroke="#2D8A4E" stroke-width="2" stroke-opacity="0.2" stroke-dasharray="6,4" />
  <line x1="640" y1="380" x2="1020" y2="520" stroke="#1A3A5C" stroke-width="2" stroke-opacity="0.2" stroke-dasharray="6,4" />

  
  <circle cx="640" cy="380" r="80" fill="url(#coreGrad)" filter="url(#coreShadow)" />
  
  <g transform="translate(616.0, 340.0) scale(2.0)" fill="#FFFFFF">
    <path d="M6.979 3.074a6 6 0 0 1 4.988 1.425l.037 .033l.034 -.03a6 6 0 0 1 4.733 -1.44l.246 .036a6 6 0 0 1 3.364 10.008l-.18 .185l-.048 .041l-7.45 7.379a1 1 0 0 1 -1.313 .082l-.094 -.082l-7.493 -7.422a6 6 0 0 1 3.176 -10.215z" />
  </g>
  <text x="640" y="410" text-anchor="middle" font-family="'Helvetica Neue', Arial, sans-serif" font-size="14" font-weight="bold" fill="#FFFFFF">Customer</text>
  <text x="640" y="428" text-anchor="middle" font-family="'Helvetica Neue', Arial, sans-serif" font-size="14" font-weight="bold" fill="#FFFFFF">Loyalty</text>
  <text x="640" y="446" text-anchor="middle" font-family="'Helvetica Neue', Arial, sans-serif" font-size="12" fill="#FFFFFF" fill-opacity="0.8">Programme</text>

  
  <circle cx="260" cy="260" r="55" fill="#FFFFFF" stroke="#1A3A5C" stroke-width="3" filter="url(#nodeShadow)" />
  
  <g transform="translate(238.0, 228.0) scale(1.8333333333333333)" fill="#1A3A5C">
    <path d="M17 3.34a10 10 0 1 1 -15 8.66l.005 -.324a10 10 0 0 1 14.995 -8.336zm-5 2.66a1 1 0 0 0 -1 1a3 3 0 1 0 0 6v2a1.024 1.024 0 0 1 -.866 -.398l-.068 -.101a1 1 0 0 0 -1.732 .998a3 3 0 0 0 2.505 1.5h.161a1 1 0 0 0 .883 .994l.117 .007a1 1 0 0 0 1 -1l.176 -.005a3 3 0 0 0 -.176 -5.995v-2c.358 -.012 .671 .14 .866 .398l.068 .101a1 1 0 0 0 1.732 -.998a3 3 0 0 0 -2.505 -1.501h-.161a1 1 0 0 0 -1 -1zm1 7a1 1 0 0 1 0 2v-2zm-2 -4v2a1 1 0 0 1 0 -2z" />
  </g>
  <text x="260" y="295" text-anchor="middle" font-family="'Helvetica Neue', Arial, sans-serif" font-size="11" font-weight="bold" fill="#1A3A5C">RELATIONSHIPS</text>
  
  <text x="260" y="335" text-anchor="middle" font-family="'Helvetica Neue', Arial, sans-serif" font-size="16" font-weight="bold" fill="#1A3A5C">Build Long-term</text>
  <text x="260" y="355" text-anchor="middle" font-family="'Helvetica Neue', Arial, sans-serif" font-size="16" font-weight="bold" fill="#1A3A5C">Relationships</text>
  <text x="260" y="375" text-anchor="middle" font-family="'Helvetica Neue', Arial, sans-serif" font-size="14" fill="#5D6D7E">→ Increase profits</text>

  
  <circle cx="1020" cy="260" r="55" fill="#FFFFFF" stroke="#E8A838" stroke-width="3" filter="url(#nodeShadow)" />
  
  <g transform="translate(998.0, 228.0) scale(1.8333333333333333)" fill="#E8A838">
    <path d="M12.01 2.011a3.2 3.2 0 0 1 2.113 .797l.154 .145l.698 .698a1.2 1.2 0 0 0 .71 .341l.135 .008h1a3.2 3.2 0 0 1 3.195 3.018l.005 .182v1c0 .27 .092 .533 .258 .743l.09 .1l.697 .698a3.2 3.2 0 0 1 .147 4.382l-.145 .154l-.698 .698a1.2 1.2 0 0 0 -.341 .71l-.008 .135v1a3.2 3.2 0 0 1 -3.018 3.195l-.182 .005h-1a1.2 1.2 0 0 0 -.743 .258l-.1 .09l-.698 .697a3.2 3.2 0 0 1 -4.382 .147l-.154 -.145l-.698 -.698a1.2 1.2 0 0 0 -.71 -.341l-.135 -.008h-1a3.2 3.2 0 0 1 -3.195 -3.018l-.005 -.182v-1a1.2 1.2 0 0 0 -.258 -.743l-.09 -.1l-.697 -.698a3.2 3.2 0 0 1 -.147 -4.382l.145 -.154l.698 -.698a1.2 1.2 0 0 0 .341 -.71l.008 -.135v-1l.005 -.182a3.2 3.2 0 0 1 3.013 -3.013l.182 -.005h1a1.2 1.2 0 0 0 .743 -.258l.1 -.09l.698 -.697a3.2 3.2 0 0 1 2.269 -.944z" />
  </g>
  <text x="1020" y="295" text-anchor="middle" font-family="'Helvetica Neue', Arial, sans-serif" font-size="11" font-weight="bold" fill="#E8A838">LOYALTY</text>
  
  <text x="1020" y="335" text-anchor="middle" font-family="'Helvetica Neue', Arial, sans-serif" font-size="16" font-weight="bold" fill="#E8A838">Increase Customer</text>
  <text x="1020" y="355" text-anchor="middle" font-family="'Helvetica Neue', Arial, sans-serif" font-size="16" font-weight="bold" fill="#E8A838">Loyalty</text>
  <text x="1020" y="375" text-anchor="middle" font-family="'Helvetica Neue', Arial, sans-serif" font-size="14" fill="#5D6D7E">15% → 30%+ repeat rate</text>

  
  <circle cx="260" cy="520" r="55" fill="#FFFFFF" stroke="#2D8A4E" stroke-width="3" filter="url(#nodeShadow)" />
  
  <g transform="translate(238.0, 488.0) scale(1.8333333333333333)" fill="#2D8A4E">
    <path d="M9.883 2.207a1.9 1.9 0 0 1 2.087 1.522l.025 .167l.005 .104v7a1 1 0 0 0 .883 .993l.117 .007h6.8a2 2 0 0 1 2 2a1 1 0 0 1 -.026 .226a10 10 0 1 1 -12.27 -11.933l.27 -.067l.11 -.02z" />
    <path d="M14 3.5v5.5a1 1 0 0 0 1 1h5.5a1 1 0 0 0 .943 -1.332a10 10 0 0 0 -6.11 -6.111a1 1 0 0 0 -1.333 .943z" />
  </g>
  <text x="260" y="555" text-anchor="middle" font-family="'Helvetica Neue', Arial, sans-serif" font-size="11" font-weight="bold" fill="#2D8A4E">PROFILING</text>
  
  <text x="260" y="595" text-anchor="middle" font-family="'Helvetica Neue', Arial, sans-serif" font-size="16" font-weight="bold" fill="#2D8A4E">Accurate Buyer</text>
  <text x="260" y="615" text-anchor="middle" font-family="'Helvetica Neue', Arial, sans-serif" font-size="16" font-weight="bold" fill="#2D8A4E">Profiling</text>
  <text x="260" y="635" text-anchor="middle" font-family="'Helvetica Neue', Arial, sans-serif" font-size="14" fill="#5D6D7E">→ Data-driven decisions</text>

  
  <circle cx="1020" cy="520" r="55" fill="#FFFFFF" stroke="#1A3A5C" stroke-width="3" filter="url(#nodeShadow)" />
  
  <g transform="translate(998.0, 488.0) scale(1.8333333333333333)" fill="#1A3A5C">
    <path d="M12 2a5 5 0 1 1 -5 5l.005 -.217a5 5 0 0 1 4.995 -4.783z" />
    <path d="M14 14a5 5 0 0 1 5 5v1a2 2 0 0 1 -2 2h-10a2 2 0 0 1 -2 -2v-1a5 5 0 0 1 5 -5h4z" />
  </g>
  <text x="1020" y="555" text-anchor="middle" font-family="'Helvetica Neue', Arial, sans-serif" font-size="11" font-weight="bold" fill="#1A3A5C">ENGAGEMENT</text>
  
  <text x="1020" y="595" text-anchor="middle" font-family="'Helvetica Neue', Arial, sans-serif" font-size="16" font-weight="bold" fill="#1A3A5C">Staff</text>
  <text x="1020" y="615" text-anchor="middle" font-family="'Helvetica Neue', Arial, sans-serif" font-size="16" font-weight="bold" fill="#1A3A5C">Engagement</text>
  <text x="1020" y="635" text-anchor="middle" font-family="'Helvetica Neue', Arial, sans-serif" font-size="14" fill="#5D6D7E">→ Service excellence</text>

  
  <path fill="#F4F6F8" stroke="#D5DDE5" stroke-width="1" d="M498,550 H782 A18,18 0 0 1 800,568 V568 A18,18 0 0 1 782,586 H498 A18,18 0 0 1 480,568 V568 A18,18 0 0 1 498,550 Z" />
  
  <g transform="translate(495.0, 557.0) scale(0.8333333333333334)" fill="#E8A838">
    <path d="M17 3.34a10 10 0 1 1 -15 8.66l.005 -.324a10 10 0 0 1 14.995 -8.336zm-5 2.66a1 1 0 0 0 -1 1a3 3 0 1 0 0 6v2a1.024 1.024 0 0 1 -.866 -.398l-.068 -.101a1 1 0 0 0 -1.732 .998a3 3 0 0 0 2.505 1.5h.161a1 1 0 0 0 .883 .994l.117 .007a1 1 0 0 0 1 -1l.176 -.005a3 3 0 0 0 -.176 -5.995v-2c.358 -.012 .671 .14 .866 .398l.068 .101a1 1 0 0 0 1.732 -.998a3 3 0 0 0 -2.505 -1.501h-.161a1 1 0 0 0 -1 -1zm1 7a1 1 0 0 1 0 2v-2zm-2 -4v2a1 1 0 0 1 0 -2z" />
  </g>
  <text x="525" y="573" font-family="'Helvetica Neue', Arial, sans-serif" font-size="14" fill="#2C3E50">Cost model: </text>
  <text x="612" y="573" font-family="'Helvetica Neue', Arial, sans-serif" font-size="14" font-weight="bold" fill="#1A3A5C">50/50 shared with head office</text>

  
  <line x1="60" y1="690" x2="1220" y2="690" stroke="#D5DDE5" stroke-width="0.5" />
  <text x="60" y="710" font-family="'Helvetica Neue', Arial, sans-serif" font-size="11" fill="#95A5A6">Source: Kimsoong Customer Services Department — Strategic Framework</text>
  <text x="1100" y="710" font-family="'Helvetica Neue', Arial, sans-serif" font-size="10" fill="#95A5A6">CONFIDENTIAL</text>
  <text x="1220" y="710" text-anchor="end" font-family="'Helvetica Neue', Arial, sans-serif" font-size="11" fill="#95A5A6">7</text>
</svg>