<svg xmlns="http://www.w3.org/2000/svg" viewBox="0 0 1280 720">
  <defs>
    <linearGradient id="goldLine" x1="0" y1="0" x2="1" y2="0">
      <stop offset="0%" stop-color="#C9A96E" stop-opacity="0"/>
      <stop offset="20%" stop-color="#C9A96E"/>
      <stop offset="80%" stop-color="#E8D5B5"/>
      <stop offset="100%" stop-color="#E8D5B5" stop-opacity="0"/>
    </linearGradient>
    <radialGradient id="endGlow" cx="50%" cy="40%" r="40%">
      <stop offset="0%" stop-color="#C9A96E" stop-opacity="0.06"/>
      <stop offset="100%" stop-color="#C9A96E" stop-opacity="0"/>
    </radialGradient>
  </defs>

  <!-- Background -->
  <rect width="1280" height="720" fill="#0A0A0A"/>

  <!-- Subtle glow -->
  <rect width="1280" height="720" fill="url(#endGlow)"/>

  <!-- Top accent line -->
  <rect x="50" y="45" width="1180" height="1" fill="url(#goldLine)" fill-opacity="0.3"/>

  <!-- Crown icon -->
  <!-- icon: phosphor-duotone/crown -->
  <g transform="translate(604.0, 230.0) scale(0.1875)" fill="#C9A96E">
    <path d="M239.78,86.62,202.78,200S176,184,128,184s-74.78,16-74.78,16l-37-113.37a4.1,4.1,0,0,1,5.72-5l53.41,26.62a4.11,4.11,0,0,0,5.36-1.56L124.48,34a4.11,4.11,0,0,1,7,0l43.77,72.74a4.12,4.12,0,0,0,5.35,1.56l53.43-26.64A4.1,4.1,0,0,1,239.78,86.62Z" opacity="0.2"/>
    <path d="M243.84,76.19a12.08,12.08,0,0,0-13.34-1.7l-50.21,25L138.37,29.86a12.11,12.11,0,0,0-20.74,0L75.71,99.52l-50.19-25A12.11,12.11,0,0,0,8.62,89.12l37,113.36a8,8,0,0,0,11.68,4.4C57.55,206.73,83.12,192,128,192s70.45,14.73,70.68,14.87a8,8,0,0,0,11.71-4.39l37-113.33A12.06,12.06,0,0,0,243.84,76.19ZM198,188.83C186,183.74,162.08,176,128,176s-58,7.74-70,12.83L26.71,93l45.07,22.47a12.17,12.17,0,0,0,15.78-4.59L128,43.66l40.44,67.2a12.18,12.18,0,0,0,15.77,4.59L229.29,93Zm-22.13-32a8,8,0,0,1-7.87,6.61,8.36,8.36,0,0,1-1.4-.12,228.2,228.2,0,0,0-77.22,0,8,8,0,0,1-2.78-15.76,244.42,244.42,0,0,1,82.78,0A8,8,0,0,1,175.88,156.8Z"/>
  </g>

  <!-- Main title -->
  <text x="640" y="330" font-family="Georgia, SimSun, serif" font-size="48" fill="#F5F0EB" text-anchor="middle" font-weight="bold" letter-spacing="6">NEWS Café</text>

  <!-- Gold divider -->
  <rect x="440" y="350" width="400" height="1.5" fill="url(#goldLine)"/>

  <!-- Subtitle -->
  <text x="640" y="395" font-family="Georgia, SimSun, serif" font-size="22" fill="#E8D5B5" text-anchor="middle" letter-spacing="6">美学周鉴，解锁潮流序章</text>

  <!-- See you next week -->
  <text x="640" y="440" font-family="Georgia, SimSun, serif" font-size="16" fill="#9E9690" text-anchor="middle" letter-spacing="3">下期见 · See You Next Week</text>

  <!-- Sparkle icons decorative -->
  <!-- icon: phosphor-duotone/sparkle -->
  <g transform="translate(380.0, 460.0) scale(0.078125)" fill="#8B7355">
    <path d="M194.82,151.43l-51.66,19a7.88,7.88,0,0,0-4.69,4.69l-19,51.66a7.92,7.92,0,0,1-14.86,0l-19-51.66a7.88,7.88,0,0,0-4.69-4.69l-51.66-19a7.92,7.92,0,0,1,0-14.86l51.66-19a7.88,7.88,0,0,0,4.69-4.69l19-51.66a7.92,7.92,0,0,1,14.86,0l19,51.66a7.88,7.88,0,0,0,4.69,4.69l51.66,19A7.92,7.92,0,0,1,194.82,151.43Z" opacity="0.2"/>
    <path d="M197.58,129.06l-51.61-19-19-51.65a15.92,15.92,0,0,0-29.88,0L78.07,110l-51.65,19a15.92,15.92,0,0,0,0,29.88L78,178l19,51.62a15.92,15.92,0,0,0,29.88,0l19-51.61,51.65-19a15.92,15.92,0,0,0,0-29.88ZM140.39,163a15.87,15.87,0,0,0-9.43,9.43l-19,51.46L93,172.39A15.87,15.87,0,0,0,83.61,163h0L32.15,144l51.46-19A15.87,15.87,0,0,0,93,115.61l19-51.46,19,51.46a15.87,15.87,0,0,0,9.43,9.43l51.46,19ZM144,40a8,8,0,0,1,8-8h16V16a8,8,0,0,1,16,0V32h16a8,8,0,0,1,0,16H184V64a8,8,0,0,1-16,0V48H152A8,8,0,0,1,144,40ZM248,88a8,8,0,0,1-8,8h-8v8a8,8,0,0,1-16,0V96h-8a8,8,0,0,1,0-16h8V72a8,8,0,0,1,16,0v8h8A8,8,0,0,1,248,88Z"/>
  </g>
  <!-- icon: phosphor-duotone/sparkle -->
  <g transform="translate(870.0, 460.0) scale(0.078125)" fill="#8B7355">
    <path d="M194.82,151.43l-51.66,19a7.88,7.88,0,0,0-4.69,4.69l-19,51.66a7.92,7.92,0,0,1-14.86,0l-19-51.66a7.88,7.88,0,0,0-4.69-4.69l-51.66-19a7.92,7.92,0,0,1,0-14.86l51.66-19a7.88,7.88,0,0,0,4.69-4.69l19-51.66a7.92,7.92,0,0,1,14.86,0l19,51.66a7.88,7.88,0,0,0,4.69,4.69l51.66,19A7.92,7.92,0,0,1,194.82,151.43Z" opacity="0.2"/>
    <path d="M197.58,129.06l-51.61-19-19-51.65a15.92,15.92,0,0,0-29.88,0L78.07,110l-51.65,19a15.92,15.92,0,0,0,0,29.88L78,178l19,51.62a15.92,15.92,0,0,0,29.88,0l19-51.61,51.65-19a15.92,15.92,0,0,0,0-29.88ZM140.39,163a15.87,15.87,0,0,0-9.43,9.43l-19,51.46L93,172.39A15.87,15.87,0,0,0,83.61,163h0L32.15,144l51.46-19A15.87,15.87,0,0,0,93,115.61l19-51.46,19,51.46a15.87,15.87,0,0,0,9.43,9.43l51.46,19ZM144,40a8,8,0,0,1,8-8h16V16a8,8,0,0,1,16,0V32h16a8,8,0,0,1,0,16H184V64a8,8,0,0,1-16,0V48H152A8,8,0,0,1,144,40ZM248,88a8,8,0,0,1-8,8h-8v8a8,8,0,0,1-16,0V96h-8a8,8,0,0,1,0-16h8V72a8,8,0,0,1,16,0v8h8A8,8,0,0,1,248,88Z"/>
  </g>

  <!-- Bottom accent line -->
  <rect x="50" y="670" width="1180" height="1" fill="url(#goldLine)" fill-opacity="0.3"/>

  <!-- Footer info -->
  <text x="640" y="695" font-family="'Microsoft YaHei', 'PingFang SC', Arial, sans-serif" font-size="11" fill="#8B7355" text-anchor="middle">NEWS Café · 美学周鉴 · 2026年4月 · 第16期</text>
</svg>
