<svg xmlns="http://www.w3.org/2000/svg" viewBox="0 0 1280 720">
  <defs>
    <clipPath id="leftImg">
      <rect x="50" y="120" width="270" height="380" rx="10"/>
    </clipPath>
    <clipPath id="rightImg">
      <rect x="670" y="120" width="560" height="300" rx="10"/>
    </clipPath>
  </defs>

  <!-- Background -->
  <rect width="1280" height="720" fill="#0A0A0A"/>

  <!-- Top bar -->
  <text x="50" y="35" font-family="Georgia, SimSun, serif" font-size="11" fill="#C9A96E" fill-opacity="0.7" letter-spacing="3">NEWS CAFÉ</text>
  <rect x="50" y="45" width="1180" height="1" fill="#2A2520"/>

  <!-- Page title -->
  <text x="640" y="85" font-family="Georgia, SimSun, serif" font-size="30" fill="#F5F0EB" font-weight="bold" text-anchor="middle">艺术的两种表达</text>
  <text x="640" y="105" font-family="Georgia, SimSun, serif" font-size="14" fill="#C9A96E" text-anchor="middle" letter-spacing="2">BOTTEGA VENETA × McQUEEN</text>

  <!-- Vertical divider -->
  <rect x="635" y="120" width="1" height="530" fill="#2A2520"/>

  <!-- LEFT: BV -->
  <rect x="50" y="120" width="270" height="380" rx="10" fill="#1A1A1A"/>
  <image href="../images/bv_arts.jpg" x="50" y="120" width="270" height="380" preserveAspectRatio="xMidYMid slice" clip-path="url(#leftImg)"/>

  <!-- BV text to the right of portrait image -->
  <use data-icon="phosphor-duotone/camera" x="340" y="130" width="26" height="26" fill="#C9A96E"/>
  <text x="340" y="185" font-family="Georgia, SimSun, serif" font-size="20" fill="#E8D5B5" font-weight="bold">Bottega Veneta</text>
  <text x="340" y="210" font-family="'Microsoft YaHei', 'PingFang SC', Arial, sans-serif" font-size="14" fill="#9E9690">for the Arts</text>

  <rect x="340" y="222" width="280" height="1" fill="#2A2520"/>

  <text font-family="'Microsoft YaHei', 'PingFang SC', Arial, sans-serif" font-size="15" fill="#F5F0EB">
    <tspan x="340" y="250">艺术摄影集，携手英国摄影</tspan>
    <tspan x="340" dy="24">师 Peter Fraser。</tspan>
    <tspan x="340" dy="30">以威尼斯为灵感舞台，</tspan>
    <tspan x="340" dy="24">27 张影像聚焦纹理、形态</tspan>
    <tspan x="340" dy="24">与色彩。</tspan>
    <tspan x="340" dy="30">诠释品牌标志性编织美学，</tspan>
    <tspan x="340" dy="24">致敬威尼托发源地。</tspan>
  </text>

  <!-- RIGHT: McQueen -->
  <rect x="670" y="120" width="560" height="300" rx="10" fill="#1A1A1A"/>
  <image href="../images/mcqueen_exhibition.jpg" x="670" y="120" width="560" height="300" preserveAspectRatio="xMidYMid slice" clip-path="url(#rightImg)"/>

  <use data-icon="phosphor-duotone/palette" x="670" y="440" width="26" height="26" fill="#C9A96E"/>
  <text x="704" y="460" font-family="Georgia, SimSun, serif" font-size="20" fill="#E8D5B5" font-weight="bold">McQueen</text>
  <text x="820" y="460" font-family="'Microsoft YaHei', 'PingFang SC', Arial, sans-serif" font-size="14" fill="#9E9690">表象之下</text>

  <rect x="670" y="475" width="560" height="1" fill="#2A2520"/>

  <text font-family="'Microsoft YaHei', 'PingFang SC', Arial, sans-serif" font-size="15" fill="#F5F0EB">
    <tspan x="670" y="505">上海 Fotografiska 影像艺术中心沉浸式展览</tspan>
    <tspan x="670" dy="24">探寻品牌艺术根源与二元美学</tspan>
    <tspan x="670" dy="24">Manta 手袋复刻 2010 年经典，以蝠鲼为灵感</tspan>
  </text>

  <rect x="670" y="590" width="560" height="40" rx="6" fill="#1A1A1A"/>
  <rect x="670" y="590" width="3" height="40" fill="#C9A96E"/>
  <text x="690" y="615" font-family="'Microsoft YaHei', 'PingFang SC', Arial, sans-serif" font-size="13" fill="#9E9690">创意总监 Seán McGirr 上海首秀 · 郭采洁、屈楚萧、周雨彤出席</text>

  <!-- Footer -->
  <rect x="50" y="670" width="1180" height="1" fill="#2A2520"/>
  <text x="50" y="695" font-family="'Microsoft YaHei', 'PingFang SC', Arial, sans-serif" font-size="11" fill="#9E9690">NEWS Café · 美学周鉴</text>
  <text x="1230" y="695" font-family="'Microsoft YaHei', 'PingFang SC', Arial, sans-serif" font-size="11" fill="#9E9690" text-anchor="end">08 / 16</text>
</svg>
