<svg xmlns="http://www.w3.org/2000/svg" width="1280" height="720" viewBox="0 0 1280 720">
  <defs>
    <linearGradient id="bgGrad" x1="0" y1="0" x2="1" y2="1">
      <stop offset="0%" stop-color="#FFFFFF"/>
      <stop offset="100%" stop-color="#F8FAFC"/>
    </linearGradient>
    <linearGradient id="heroGrad" x1="0" y1="0" x2="1" y2="0">
      <stop offset="0%" stop-color="#0F62FE"/>
      <stop offset="100%" stop-color="#38BDF8"/>
    </linearGradient>
    <linearGradient id="softOrb1" x1="0" y1="0" x2="1" y2="1">
      <stop offset="0%" stop-color="#0F62FE" stop-opacity="0.14"/>
      <stop offset="100%" stop-color="#38BDF8" stop-opacity="0.04"/>
    </linearGradient>
    <linearGradient id="softOrb2" x1="0" y1="0" x2="1" y2="1">
      <stop offset="0%" stop-color="#16A34A" stop-opacity="0.14"/>
      <stop offset="100%" stop-color="#16A34A" stop-opacity="0.03"/>
    </linearGradient>
    <filter id="softShadow" x="-15%" y="-15%" width="140%" height="140%">
      <feGaussianBlur in="SourceAlpha" stdDeviation="12"/>
      <feOffset dx="0" dy="8" result="offsetBlur"/>
      <feFlood flood-color="#0F172A" flood-opacity="0.12" result="shadowColor"/>
      <feComposite in="shadowColor" in2="offsetBlur" operator="in" result="shadow"/>
      <feMerge>
        <feMergeNode in="shadow"/>
        <feMergeNode in="SourceGraphic"/>
      </feMerge>
    </filter>
    <filter id="titleGlow" x="-20%" y="-20%" width="140%" height="140%">
      <feGaussianBlur in="SourceAlpha" stdDeviation="4" result="blur"/>
      <feFlood flood-color="#38BDF8" flood-opacity="0.28" result="glowColor"/>
      <feComposite in="glowColor" in2="blur" operator="in" result="glow"/>
      <feMerge>
        <feMergeNode in="glow"/>
        <feMergeNode in="SourceGraphic"/>
      </feMerge>
    </filter>
  </defs>

  <rect x="0" y="0" width="1280" height="720" fill="url(#bgGrad)"/>

  <g id="background-decoration">
    <circle cx="1075" cy="130" r="170" fill="url(#softOrb1)"/>
    <circle cx="1190" cy="560" r="210" fill="url(#softOrb2)"/>
    <circle cx="915" cy="640" r="120" fill="#38BDF8" fill-opacity="0.07"/>
    <rect x="830" y="60" width="360" height="360" rx="36" fill="#FFFFFF" filter="url(#softShadow)"/>
    <rect x="862" y="92" width="296" height="296" rx="24" fill="#F8FAFC" stroke="#CBD5E1" stroke-dasharray="10,6" stroke-width="2"/>
    <text x="1010" y="220" text-anchor="middle" font-family="Microsoft YaHei" font-size="20" fill="#475569">封面背景占位</text>
    <text x="1010" y="254" text-anchor="middle" font-family="Microsoft YaHei" font-size="14" fill="#94A3B8">浅色科技商务抽象背景</text>
    <text x="1010" y="278" text-anchor="middle" font-family="Microsoft YaHei" font-size="14" fill="#94A3B8">右侧留白便于标题信息呈现</text>

    <path d="M900 482 C980 430, 1070 430, 1160 470" fill="none" stroke="#0F62FE" stroke-opacity="0.18" stroke-width="3"/>
    <path d="M900 518 C995 475, 1085 490, 1160 540" fill="none" stroke="#16A34A" stroke-opacity="0.16" stroke-width="3"/>
    <path d="M900 554 C990 532, 1080 560, 1158 602" fill="none" stroke="#38BDF8" stroke-opacity="0.18" stroke-width="3"/>

    <circle cx="932" cy="460" r="6" fill="#0F62FE"/>
    <circle cx="1036" cy="438" r="6" fill="#0F62FE"/>
    <circle cx="1145" cy="466" r="6" fill="#0F62FE"/>

    <circle cx="946" cy="506" r="6" fill="#16A34A"/>
    <circle cx="1040" cy="493" r="6" fill="#16A34A"/>
    <circle cx="1140" cy="526" r="6" fill="#16A34A"/>

    <circle cx="934" cy="550" r="6" fill="#38BDF8"/>
    <circle cx="1038" cy="548" r="6" fill="#38BDF8"/>
    <circle cx="1138" cy="594" r="6" fill="#38BDF8"/>
  </g>

  <g id="left-accent-panel">
    <rect x="60" y="56" width="10" height="608" rx="5" fill="url(#heroGrad)"/>
    <rect x="92" y="80" width="154" height="34" rx="17" fill="#0F62FE" fill-opacity="0.10"/>
    <text x="169" y="103" text-anchor="middle" font-family="Microsoft YaHei" font-size="15" font-weight="700" fill="#0F62FE">本地联调测试</text>
  </g>

  <g id="title-block">
    <text x="92" y="192" font-family="Microsoft YaHei" font-size="42" font-weight="700" fill="#0F172A" filter="url(#titleGlow)">
      <tspan x="92" dy="0">本地联调测试：经营表现呈现</tspan>
      <tspan x="92" dy="56">增长但结构信号分化</tspan>
    </text>
    <rect x="92" y="278" width="600" height="6" rx="3" fill="url(#heroGrad)"/>
    <text x="92" y="332" font-family="Microsoft YaHei" font-size="24" font-weight="400" fill="#475569">
      当前业务表现可概括为“收入增长明确、区域驱动集中、
    </text>
    <text x="92" y="368" font-family="Microsoft YaHei" font-size="24" font-weight="400" fill="#475569">
      获客效率承压但存量经营改善”。
    </text>
  </g>

  <g id="summary-card" filter="url(#softShadow)">
    <rect x="92" y="426" width="628" height="196" rx="16" fill="#FFFFFF" stroke="#CBD5E1" stroke-width="1"/>
    <rect x="92" y="426" width="628" height="52" rx="16" fill="#F8FAFC"/>
    <rect x="92" y="462" width="628" height="16" fill="#F8FAFC"/>
    <text x="116" y="459" font-family="Microsoft YaHei" font-size="18" font-weight="700" fill="#0F172A">封面摘要</text>

    <g id="bullet-1">
      <circle cx="125" cy="511" r="5" fill="#0F62FE"/>
      <text x="145" y="517" font-family="Microsoft YaHei" font-size="18" fill="#0F172A">主题：本地联调测试</text>
    </g>

    <g id="bullet-2">
      <circle cx="125" cy="555" r="5" fill="#16A34A"/>
      <text x="145" y="561" font-family="Microsoft YaHei" font-size="18" fill="#0F172A">核心看点：收入同比增长18%</text>
    </g>

    <g id="bullet-3">
      <circle cx="125" cy="599" r="5" fill="#38BDF8"/>
      <text x="145" y="605" font-family="Microsoft YaHei" font-size="18" fill="#0F172A">补充信息：华东区贡献主要增量，新客成本上升、复购改善</text>
    </g>
  </g>

  <g id="signal-tags">
    <rect x="753" y="454" width="175" height="56" rx="16" fill="#FFFFFF" stroke="#CBD5E1" stroke-width="1" filter="url(#softShadow)"/>
    <text x="840.5" y="489" text-anchor="middle" font-family="SimHei" font-size="26" fill="#16A34A">+18%</text>
    <text x="840.5" y="511" text-anchor="middle" font-family="Microsoft YaHei" font-size="14" fill="#475569">收入同比增长</text>

    <rect x="948" y="454" width="232" height="56" rx="16" fill="#FFFFFF" stroke="#CBD5E1" stroke-width="1" filter="url(#softShadow)"/>
    <text x="1064" y="489" text-anchor="middle" font-family="SimHei" font-size="24" fill="#0F62FE">华东主增量</text>
    <text x="1064" y="511" text-anchor="middle" font-family="Microsoft YaHei" font-size="14" fill="#475569">区域驱动相对集中</text>

    <rect x="831" y="530" width="349" height="56" rx="16" fill="#FFFFFF" stroke="#CBD5E1" stroke-width="1" filter="url(#softShadow)"/>
    <text x="1005.5" y="565" text-anchor="middle" font-family="Microsoft YaHei" font-size="22" font-weight="700" fill="#DC2626">新客成本上升</text>
    <text x="1130" y="565" text-anchor="middle" font-family="Microsoft YaHei" font-size="22" font-weight="700" fill="#16A34A">复购改善</text>
  </g>

  <g id="footer">
    <line x1="60" y1="676" x2="1220" y2="676" stroke="#CBD5E1" stroke-width="1"/>
    <text x="60" y="700" font-family="Microsoft YaHei" font-size="13" fill="#94A3B8">来源于用户提供的简要业务要点，适合用作封面摘要。</text>
    <text x="1220" y="700" text-anchor="end" font-family="Microsoft YaHei" font-size="13" fill="#94A3B8">01</text>
  </g>
</svg>
